<?xml version="1.0" encoding="utf-8"?>
<!-- Generator: Adobe Illustrator 22.1.0, SVG Export Plug-In . SVG Version: 6.00 Build 0)  -->
<svg version="1.1" id="Layer_1" xmlns="http://www.w3.org/2000/svg" xmlns:xlink="http://www.w3.org/1999/xlink" x="0px" y="0px"
	 viewBox="0 0 32 32" style="enable-background:new 0 0 32 32;" xml:space="preserve">
<style type="text/css">
	.st0{fill:#FFFFFF;}
</style>
<path class="st0" d="M29.7,16c-1.4,0-2.1,1-2.3,2.1c-0.8,3.7-4.3,9.4-11.4,9.4C9.7,27.4,4.6,22.3,4.6,16S9.7,4.6,16,4.6
	c2.5,0,4.9,0.9,6.9,2.3h-2.3c-1.3,0-2.3,1-2.3,2.3s1,2.3,2.3,2.3h6.9c1.3,0,2.3-1,2.3-2.3V2.3c0-1.3-1-2.3-2.3-2.3s-2.3,1-2.3,2.3
	v0.6C22.5,1,19.4,0,16,0C7.2,0,0,7.2,0,16s7.2,16,16,16c11.4,0,16-10.9,16-13.6C32,16.8,30.7,16,29.7,16z"/>
</svg>
